<?xml version="1.0" encoding="UTF-8" standalone="no"?>
<svg width="199px" height="41px" viewBox="0 0 199 41" version="1.1" xmlns="http://www.w3.org/2000/svg" xmlns:xlink="http://www.w3.org/1999/xlink" xmlns:sketch="http://www.bohemiancoding.com/sketch/ns">
    <!-- Generator: Sketch Beta 3.1.1 (8761) - http://www.bohemiancoding.com/sketch -->
    <title>careerplug-logo</title>
    <desc>Created with Sketch Beta.</desc>
    <defs></defs>
    <g id="Page-1" stroke="none" stroke-width="1" fill="none" fill-rule="evenodd" sketch:type="MSPage">
        <g id="careerplug-logo" sketch:type="MSLayerGroup" transform="translate(1.000000, 0.000000)">
            <path d="M29.325,7.667 L28.952,7.414 C21.824,2.572 12.098,4.455 7.227,11.626 C2.356,18.795 4.187,28.534 11.313,33.375 L11.687,33.628 C18.815,38.47 28.542,36.583 33.412,29.416 C38.283,22.248 36.453,12.509 29.325,7.667 L29.325,7.667 Z M40.183,16.635 C39.088,11.353 35.998,6.81 31.48,3.844 L31.024,3.545 C26.507,0.577 21.11,-0.454 15.828,0.641 C10.579,1.727 6.069,4.789 3.133,9.261 C-2.946,18.519 -0.328,31.019 8.971,37.128 C8.974,37.13 9.43,37.427 9.43,37.427 C13.943,40.392 19.34,41.424 24.621,40.331 C29.872,39.243 34.38,36.18 37.317,31.709 C40.253,27.238 41.271,21.885 40.183,16.635 L40.183,16.635 Z M35.037,30.211 C32.5,34.075 28.604,36.72 24.067,37.659 C19.499,38.605 14.832,37.713 10.923,35.145 C10.92,35.143 10.464,34.846 10.464,34.846 C2.426,29.566 0.159,18.759 5.414,10.76 C7.949,6.896 11.845,4.25 16.382,3.31 C20.95,2.364 25.619,3.257 29.527,5.824 L29.982,6.124 C33.891,8.691 36.566,12.62 37.513,17.188 C38.453,21.725 37.573,26.351 35.037,30.211 L35.037,30.211 Z" id="Fill-3" fill="#006095" sketch:type="MSShapeGroup"></path>
            <path d="M19.732,15.62 C20.12,15.883 20.594,15.864 20.788,15.58 L24.645,9.905 C24.837,9.619 24.681,9.171 24.293,8.906 C23.904,8.644 23.43,8.662 23.235,8.948 L19.38,14.623 C19.304,14.735 19.278,14.873 19.308,15.022 C19.349,15.244 19.508,15.467 19.732,15.62 L19.732,15.62 Z M26.526,22.875 L15.458,15.355 C14.99,15.037 14.467,14.883 14.095,14.955 C13.924,14.987 13.79,15.068 13.71,15.187 C13.627,15.307 13.602,15.46 13.634,15.632 C13.706,16.005 14.04,16.434 14.509,16.752 L25.577,24.271 C26.045,24.589 26.566,24.742 26.939,24.672 C27.111,24.638 27.245,24.558 27.326,24.438 C27.384,24.352 27.414,24.25 27.414,24.134 C27.414,24.089 27.409,24.042 27.4,23.992 C27.329,23.619 26.993,23.191 26.526,22.875 L26.526,22.875 Z M23.14,25.161 L14.773,19.475 C14.234,19.11 13.582,19.124 13.321,19.51 C13.06,19.896 13.285,20.507 13.824,20.873 L22.191,26.558 C22.506,26.772 22.878,26.866 23.185,26.808 C23.385,26.769 23.543,26.671 23.644,26.523 C23.717,26.416 23.754,26.29 23.754,26.152 C23.754,26.101 23.749,26.048 23.737,25.995 C23.68,25.687 23.455,25.375 23.14,25.161 L23.14,25.161 Z M12.414,27.141 C12.271,27.043 12.091,27.008 11.909,27.042 C11.685,27.084 11.478,27.226 11.338,27.43 C11.078,27.815 11.134,28.311 11.463,28.536 L16.388,31.881 C16.718,32.104 17.201,31.975 17.463,31.591 L17.464,31.591 C17.724,31.206 17.668,30.709 17.338,30.484 C17.337,30.484 12.414,27.141 12.414,27.141 L12.414,27.141 Z M19.882,27.627 L14.004,23.635 C13.814,23.505 13.586,23.457 13.362,23.501 C13.142,23.544 12.95,23.669 12.825,23.854 C12.564,24.239 12.665,24.767 13.055,25.032 L18.932,29.024 C19.321,29.288 19.851,29.189 20.112,28.804 C20.238,28.618 20.284,28.394 20.241,28.172 C20.199,27.949 20.071,27.755 19.882,27.627 L19.882,27.627 Z M29.718,12.594 C29.33,12.331 28.855,12.347 28.662,12.632 L24.805,18.309 C24.613,18.595 24.77,19.042 25.157,19.307 C25.381,19.458 25.646,19.524 25.869,19.482 C26.019,19.453 26.138,19.378 26.214,19.266 L30.07,13.591 C30.264,13.304 30.106,12.857 29.718,12.594 L29.718,12.594 Z" id="Fill-4" fill="#FFFFFF" sketch:type="MSShapeGroup"></path>
            <path d="M62.752,13.725 C61.631,12.893 60.445,12.476 59.197,12.476 C57.691,12.476 56.218,13.212 55.417,14.397 C54.552,15.679 54.168,17.537 54.168,20.13 C54.168,23.174 54.425,24.872 55.097,26.089 C55.993,27.722 57.467,28.587 59.389,28.587 C60.702,28.587 61.887,28.202 63.2,27.146 L65.25,29.964 C63.489,31.405 61.599,32.046 59.069,32.046 C55.993,32.046 53.624,31.053 51.798,28.972 C50.004,26.953 49.107,24.263 49.107,20.996 C49.107,18.209 49.587,16 50.613,14.077 C52.343,10.842 55.546,8.92 59.133,8.92 C61.343,8.92 63.553,9.625 64.77,10.682 L62.752,13.725" id="Fill-5" fill="#F16524" sketch:type="MSShapeGroup"></path>
            <path d="M69.671,15.871 C71.271,15.198 72.65,14.91 74.155,14.91 C76.909,14.91 78.799,15.935 79.439,17.761 C79.663,18.434 79.759,18.946 79.727,20.707 L79.631,26.217 L79.631,26.504 C79.631,28.266 79.919,28.939 81.169,29.867 L78.895,32.494 C77.902,32.078 77.005,31.341 76.588,30.509 C76.269,30.829 75.916,31.148 75.596,31.373 C74.795,31.949 73.642,32.271 72.296,32.271 C68.645,32.271 66.66,30.413 66.66,27.146 C66.66,23.302 69.318,21.508 74.539,21.508 C74.859,21.508 75.147,21.508 75.499,21.54 L75.499,20.867 C75.499,19.042 75.147,18.434 73.578,18.434 C72.2,18.434 70.599,19.105 68.837,20.292 L67.012,17.216 C67.876,16.671 68.516,16.352 69.671,15.871 L69.671,15.871 Z M75.244,24.487 C72.264,24.487 71.24,25.032 71.24,26.986 C71.24,28.266 72.04,29.132 73.13,29.132 C73.93,29.132 74.731,28.716 75.372,28.01 L75.435,24.487 L75.244,24.487 L75.244,24.487 Z" id="Fill-6" fill="#F16524" sketch:type="MSShapeGroup"></path>
            <path d="M86.806,14.878 C87.189,15.55 87.415,16.288 87.479,17.216 C88.087,16.383 89.112,15.487 89.913,15.134 C90.265,14.974 90.841,14.878 91.322,14.878 C91.963,14.878 92.251,14.942 92.923,15.23 L91.739,19.01 C91.322,18.785 90.97,18.69 90.489,18.69 C89.528,18.69 88.663,19.138 87.862,20.066 L87.862,31.661 L83.571,31.661 L83.571,20.707 C83.571,18.498 83.315,16.831 82.961,15.903 L86.806,14.878" id="Fill-7" fill="#F16524" sketch:type="MSShapeGroup"></path>
            <path d="M107.369,29.836 C105.479,31.373 103.494,32.111 101.187,32.111 C96.478,32.111 93.435,28.78 93.435,23.622 C93.435,20.676 94.044,18.721 95.487,17.12 C96.831,15.615 98.465,14.91 100.642,14.91 C102.532,14.91 104.326,15.55 105.382,16.639 C106.889,18.177 107.561,20.387 107.561,23.814 L107.561,24.807 L98.08,24.807 L98.08,24.935 C98.08,27.466 99.33,28.908 101.54,28.908 C103.013,28.908 104.39,28.363 105.704,27.273 L107.369,29.836 L107.369,29.836 Z M103.109,21.668 L103.109,21.476 C103.109,20.259 102.98,19.619 102.596,19.01 C102.18,18.369 101.571,18.049 100.706,18.049 C99.072,18.049 98.144,19.331 98.144,21.603 L98.144,21.668 L103.109,21.668 L103.109,21.668 Z" id="Fill-8" fill="#F16524" sketch:type="MSShapeGroup"></path>
            <path d="M123.063,29.836 C121.174,31.373 119.188,32.111 116.882,32.111 C112.173,32.111 109.13,28.78 109.13,23.622 C109.13,20.676 109.739,18.721 111.181,17.12 C112.526,15.615 114.16,14.91 116.337,14.91 C118.227,14.91 120.021,15.55 121.078,16.639 C122.584,18.177 123.256,20.387 123.256,23.814 L123.256,24.807 L113.775,24.807 L113.775,24.935 C113.775,27.466 115.024,28.908 117.234,28.908 C118.707,28.908 120.084,28.363 121.397,27.273 L123.063,29.836 L123.063,29.836 Z M118.804,21.668 L118.804,21.476 C118.804,20.259 118.675,19.619 118.292,19.01 C117.874,18.369 117.266,18.049 116.401,18.049 C114.768,18.049 113.838,19.331 113.838,21.603 L113.838,21.668 L118.804,21.668 L118.804,21.668 Z" id="Fill-9" fill="#F16524" sketch:type="MSShapeGroup"></path>
            <path d="M129.149,14.878 C129.533,15.55 129.758,16.288 129.821,17.216 C130.432,16.383 131.456,15.487 132.257,15.134 C132.609,14.974 133.185,14.878 133.666,14.878 C134.306,14.878 134.595,14.941 135.268,15.23 L134.082,19.01 C133.666,18.785 133.314,18.69 132.832,18.69 C131.872,18.69 131.007,19.138 130.206,20.066 L130.206,31.661 L125.914,31.661 L125.914,20.707 C125.914,18.498 125.658,16.831 125.306,15.903 L129.149,14.878" id="Fill-10" fill="#F16524" sketch:type="MSShapeGroup"></path>
            <path d="M143.53,9.4 C147.31,9.4 148.463,9.786 149.712,10.489 C151.793,11.644 152.915,13.692 152.915,16.255 C152.915,19.203 151.506,21.573 149.072,22.726 C148.047,23.206 147.085,23.462 144.619,23.462 L142.153,23.462 L142.153,31.661 L137.669,31.661 L137.669,9.4 L143.53,9.4 L143.53,9.4 Z M142.153,19.81 L144.492,19.81 C146.317,19.81 146.862,19.586 147.47,18.657 C147.854,18.049 148.015,17.409 148.015,16.352 C148.015,14.269 146.894,13.02 145.004,13.02 L142.153,13.02 L142.153,19.81 L142.153,19.81 Z" id="Fill-11" fill="#006095" sketch:type="MSShapeGroup"></path>
            <path d="M159.833,12.219 L159.833,25 C159.833,27.818 159.866,28.202 160.123,28.651 C160.282,28.939 160.634,29.1 160.987,29.1 C161.147,29.1 161.243,29.1 161.467,29.035 L162.204,31.597 C161.467,31.885 160.57,32.046 159.642,32.046 C157.816,32.046 156.342,31.181 155.83,29.803 C155.51,28.972 155.446,28.458 155.446,26.121 L155.446,13.885 C155.446,11.739 155.381,10.426 155.222,8.952 L159.609,7.959 C159.769,8.856 159.833,9.914 159.833,12.219" id="Fill-12" fill="#006095" sketch:type="MSShapeGroup"></path>
            <path d="M168.641,14.846 L168.641,25.384 C168.641,26.857 168.769,27.626 168.995,28.074 C169.219,28.522 169.859,28.844 170.499,28.844 C171.557,28.844 172.837,28.074 173.159,27.273 L173.159,15.743 L177.258,14.878 L177.258,27.402 C177.258,28.491 177.61,29.612 178.251,30.381 L175.207,32.111 C174.663,31.725 174.215,31.181 173.927,30.509 C172.869,31.533 171.333,32.078 169.603,32.078 C167.297,32.078 165.311,30.989 164.766,29.419 C164.51,28.683 164.413,27.818 164.413,26.153 L164.413,15.646 L168.641,14.846" id="Fill-13" fill="#006095" sketch:type="MSShapeGroup"></path>
            <path d="M197.372,17.056 C196.443,17.921 195.546,18.273 194.362,18.273 C193.945,18.273 193.497,18.209 193.24,18.177 C193.881,18.946 194.202,19.779 194.202,20.867 C194.202,23.686 191.64,25.737 188.148,25.737 C187.956,25.737 187.828,25.737 187.506,25.705 C186.418,26.217 185.81,26.601 185.81,27.05 C185.81,27.273 186.066,27.435 186.514,27.435 L188.82,27.466 C191.319,27.498 192.632,27.883 193.785,28.939 C194.746,29.836 195.194,30.956 195.194,32.43 C195.194,33.808 194.778,34.865 193.881,35.825 C192.44,37.363 189.974,37.938 187.411,37.938 C185.073,37.938 182.67,37.555 181.197,36.178 C180.301,35.345 179.852,34.384 179.852,33.263 C179.852,32.366 180.076,31.917 180.237,31.597 L184.208,31.597 C184.048,31.982 184.016,32.206 184.016,32.655 C184.016,33.967 185.104,34.672 187.09,34.672 C188.18,34.672 189.108,34.544 189.782,34.128 C190.422,33.743 190.838,33.135 190.838,32.463 C190.838,30.989 189.524,30.54 187.828,30.509 L186.002,30.477 C184.08,30.445 182.831,30.284 182.062,29.964 C181.293,29.675 180.812,28.939 180.812,27.818 C180.812,26.762 181.133,25.769 183.823,25.063 C181.453,24.455 180.301,22.949 180.301,20.515 C180.301,17.152 183.022,14.974 187.219,14.974 C188.148,14.974 188.98,15.102 190.166,15.39 C191.062,15.615 191.64,15.743 192.184,15.743 C193.369,15.743 194.586,15.23 195.579,14.333 L197.372,17.056 L197.372,17.056 Z M184.624,20.548 C184.624,22.213 185.65,22.886 187.155,22.886 C188.852,22.886 189.782,22.053 189.782,20.548 C189.782,19.01 188.82,18.113 187.186,18.113 C185.553,18.113 184.624,19.01 184.624,20.548 L184.624,20.548 Z" id="Fill-14" fill="#006095" sketch:type="MSShapeGroup"></path>
        </g>
    </g>
</svg>